<svg width="781" height="592" viewBox="0 0 781 592" fill="none" xmlns="http://www.w3.org/2000/svg">
<g filter="url(#filter0_d)">
<rect x="8" width="765" height="569" rx="95" fill="#EB1695"/>
<path d="M273.847 101.4H253.047L249.079 111H238.455L258.423 66.2H268.663L288.695 111H277.815L273.847 101.4ZM270.583 93.528L263.479 76.376L256.375 93.528H270.583ZM312.991 76.056C316.191 76.056 319.093 76.8027 321.695 78.296C324.341 79.7467 326.41 81.816 327.903 84.504C329.397 87.1493 330.143 90.2427 330.143 93.784C330.143 97.3253 329.397 100.44 327.903 103.128C326.41 105.773 324.341 107.843 321.695 109.336C319.093 110.787 316.191 111.512 312.991 111.512C308.255 111.512 304.65 110.019 302.175 107.032V111H292.639V63.512H302.623V80.216C305.141 77.4427 308.597 76.056 312.991 76.056ZM311.263 103.32C313.823 103.32 315.914 102.467 317.535 100.76C319.199 99.0107 320.031 96.6853 320.031 93.784C320.031 90.8827 319.199 88.5787 317.535 86.872C315.914 85.1227 313.823 84.248 311.263 84.248C308.703 84.248 306.591 85.1227 304.927 86.872C303.306 88.5787 302.495 90.8827 302.495 93.784C302.495 96.6853 303.306 99.0107 304.927 100.76C306.591 102.467 308.703 103.32 311.263 103.32ZM353.211 111.512C349.584 111.512 346.32 110.765 343.419 109.272C340.56 107.736 338.32 105.624 336.699 102.936C335.077 100.248 334.267 97.1973 334.267 93.784C334.267 90.3707 335.077 87.32 336.699 84.632C338.32 81.944 340.56 79.8533 343.419 78.36C346.32 76.824 349.584 76.056 353.211 76.056C356.837 76.056 360.08 76.824 362.939 78.36C365.797 79.8533 368.037 81.944 369.659 84.632C371.28 87.32 372.091 90.3707 372.091 93.784C372.091 97.1973 371.28 100.248 369.659 102.936C368.037 105.624 365.797 107.736 362.939 109.272C360.08 110.765 356.837 111.512 353.211 111.512ZM353.211 103.32C355.771 103.32 357.861 102.467 359.483 100.76C361.147 99.0107 361.979 96.6853 361.979 93.784C361.979 90.8827 361.147 88.5787 359.483 86.872C357.861 85.1227 355.771 84.248 353.211 84.248C350.651 84.248 348.539 85.1227 346.875 86.872C345.211 88.5787 344.379 90.8827 344.379 93.784C344.379 96.6853 345.211 99.0107 346.875 100.76C348.539 102.467 350.651 103.32 353.211 103.32ZM413.452 76.568V111H403.98V106.904C402.658 108.397 401.079 109.549 399.244 110.36C397.41 111.128 395.426 111.512 393.292 111.512C388.77 111.512 385.186 110.211 382.54 107.608C379.895 105.005 378.572 101.144 378.572 96.024V76.568H388.556V94.552C388.556 100.099 390.882 102.872 395.532 102.872C397.922 102.872 399.842 102.104 401.292 100.568C402.743 98.9893 403.468 96.664 403.468 93.592V76.568H413.452ZM444.91 109.336C443.928 110.061 442.712 110.616 441.262 111C439.854 111.341 438.36 111.512 436.782 111.512C432.686 111.512 429.507 110.467 427.246 108.376C425.027 106.285 423.918 103.213 423.918 99.16V85.016H418.606V77.336H423.918V68.952H433.902V77.336H442.478V85.016H433.902V99.032C433.902 100.483 434.264 101.613 434.99 102.424C435.758 103.192 436.824 103.576 438.19 103.576C439.768 103.576 441.112 103.149 442.222 102.296L444.91 109.336ZM503.327 76.568V111H493.855V106.904C492.533 108.397 490.954 109.549 489.119 110.36C487.285 111.128 485.301 111.512 483.167 111.512C478.645 111.512 475.061 110.211 472.415 107.608C469.77 105.005 468.447 101.144 468.447 96.024V76.568H478.431V94.552C478.431 100.099 480.757 102.872 485.407 102.872C487.797 102.872 489.717 102.104 491.167 100.568C492.618 98.9893 493.343 96.664 493.343 93.592V76.568H503.327ZM524.161 111.512C521.302 111.512 518.507 111.171 515.777 110.488C513.046 109.763 510.87 108.867 509.249 107.8L512.577 100.632C514.113 101.613 515.969 102.424 518.145 103.064C520.321 103.661 522.454 103.96 524.545 103.96C528.769 103.96 530.881 102.915 530.881 100.824C530.881 99.8427 530.305 99.1387 529.153 98.712C528.001 98.2853 526.23 97.9227 523.841 97.624C521.025 97.1973 518.699 96.7067 516.865 96.152C515.03 95.5973 513.43 94.616 512.065 93.208C510.742 91.8 510.081 89.7947 510.081 87.192C510.081 85.016 510.699 83.096 511.937 81.432C513.217 79.7253 515.051 78.4027 517.441 77.464C519.873 76.5253 522.731 76.056 526.017 76.056C528.449 76.056 530.859 76.3333 533.249 76.888C535.681 77.4 537.686 78.1253 539.265 79.064L535.937 86.168C532.907 84.4613 529.601 83.608 526.017 83.608C523.883 83.608 522.283 83.9067 521.217 84.504C520.15 85.1013 519.617 85.8693 519.617 86.808C519.617 87.8747 520.193 88.6213 521.345 89.048C522.497 89.4747 524.331 89.88 526.849 90.264C529.665 90.7333 531.969 91.2453 533.761 91.8C535.553 92.312 537.11 93.272 538.433 94.68C539.755 96.088 540.417 98.0507 540.417 100.568C540.417 102.701 539.777 104.6 538.497 106.264C537.217 107.928 535.339 109.229 532.865 110.168C530.433 111.064 527.531 111.512 524.161 111.512Z" fill="#FFFEFE"/>
<path d="M135.184 169.4L123.952 203H118.912L109.744 176.168L100.576 203H95.4399L84.2079 169.4H89.1519L98.2239 196.712L107.68 169.4H112.096L121.36 196.856L130.624 169.4H135.184ZM161.454 190.424C161.454 190.776 161.422 191.24 161.358 191.816H140.718C141.006 194.056 141.982 195.864 143.646 197.24C145.342 198.584 147.438 199.256 149.934 199.256C152.974 199.256 155.422 198.232 157.278 196.184L159.822 199.16C158.67 200.504 157.23 201.528 155.502 202.232C153.806 202.936 151.902 203.288 149.79 203.288C147.102 203.288 144.718 202.744 142.638 201.656C140.558 200.536 138.942 198.984 137.79 197C136.67 195.016 136.11 192.776 136.11 190.28C136.11 187.816 136.654 185.592 137.742 183.608C138.862 181.624 140.382 180.088 142.302 179C144.254 177.88 146.446 177.32 148.878 177.32C151.31 177.32 153.47 177.88 155.358 179C157.278 180.088 158.766 181.624 159.822 183.608C160.91 185.592 161.454 187.864 161.454 190.424ZM148.878 181.208C146.67 181.208 144.814 181.88 143.31 183.224C141.838 184.568 140.974 186.328 140.718 188.504H157.038C156.782 186.36 155.902 184.616 154.398 183.272C152.926 181.896 151.086 181.208 148.878 181.208ZM190.007 177.32C193.527 177.32 196.215 178.184 198.071 179.912C199.959 181.64 200.903 184.216 200.903 187.64V203H196.535V199.64C195.767 200.824 194.663 201.736 193.223 202.376C191.815 202.984 190.135 203.288 188.183 203.288C185.335 203.288 183.047 202.6 181.319 201.224C179.623 199.848 178.775 198.04 178.775 195.8C178.775 193.56 179.591 191.768 181.223 190.424C182.855 189.048 185.447 188.36 188.999 188.36H196.295V187.448C196.295 185.464 195.719 183.944 194.567 182.888C193.415 181.832 191.719 181.304 189.479 181.304C187.975 181.304 186.503 181.56 185.063 182.072C183.623 182.552 182.407 183.208 181.415 184.04L179.495 180.584C180.807 179.528 182.375 178.728 184.199 178.184C186.023 177.608 187.959 177.32 190.007 177.32ZM188.951 199.736C190.711 199.736 192.231 199.352 193.511 198.584C194.791 197.784 195.719 196.664 196.295 195.224V191.672H189.191C185.287 191.672 183.335 192.984 183.335 195.608C183.335 196.888 183.831 197.896 184.823 198.632C185.815 199.368 187.191 199.736 188.951 199.736ZM213.847 181.832C214.647 180.36 215.831 179.24 217.398 178.472C218.967 177.704 220.871 177.32 223.111 177.32V181.784C222.855 181.752 222.503 181.736 222.055 181.736C219.559 181.736 217.591 182.488 216.151 183.992C214.743 185.464 214.039 187.576 214.039 190.328V203H209.431V177.56H213.847V181.832ZM251.548 190.424C251.548 190.776 251.516 191.24 251.452 191.816H230.812C231.1 194.056 232.076 195.864 233.74 197.24C235.436 198.584 237.532 199.256 240.028 199.256C243.068 199.256 245.516 198.232 247.372 196.184L249.916 199.16C248.764 200.504 247.324 201.528 245.596 202.232C243.9 202.936 241.996 203.288 239.884 203.288C237.196 203.288 234.812 202.744 232.732 201.656C230.652 200.536 229.036 198.984 227.884 197C226.764 195.016 226.204 192.776 226.204 190.28C226.204 187.816 226.748 185.592 227.836 183.608C228.956 181.624 230.476 180.088 232.396 179C234.348 177.88 236.54 177.32 238.972 177.32C241.404 177.32 243.564 177.88 245.452 179C247.372 180.088 248.86 181.624 249.916 183.608C251.004 185.592 251.548 187.864 251.548 190.424ZM238.972 181.208C236.764 181.208 234.908 181.88 233.404 183.224C231.932 184.568 231.068 186.328 230.812 188.504H247.132C246.876 186.36 245.996 184.616 244.492 183.272C243.02 181.896 241.18 181.208 238.972 181.208ZM280.101 177.32C283.621 177.32 286.309 178.184 288.165 179.912C290.053 181.64 290.997 184.216 290.997 187.64V203H286.629V199.64C285.861 200.824 284.757 201.736 283.317 202.376C281.909 202.984 280.229 203.288 278.277 203.288C275.429 203.288 273.141 202.6 271.413 201.224C269.717 199.848 268.869 198.04 268.869 195.8C268.869 193.56 269.685 191.768 271.317 190.424C272.949 189.048 275.541 188.36 279.093 188.36H286.389V187.448C286.389 185.464 285.813 183.944 284.661 182.888C283.509 181.832 281.813 181.304 279.573 181.304C278.069 181.304 276.597 181.56 275.157 182.072C273.717 182.552 272.501 183.208 271.509 184.04L269.589 180.584C270.901 179.528 272.469 178.728 274.293 178.184C276.117 177.608 278.053 177.32 280.101 177.32ZM279.045 199.736C280.805 199.736 282.325 199.352 283.605 198.584C284.885 197.784 285.813 196.664 286.389 195.224V191.672H279.285C275.381 191.672 273.429 192.984 273.429 195.608C273.429 196.888 273.925 197.896 274.917 198.632C275.909 199.368 277.285 199.736 279.045 199.736ZM325.999 177.32C329.231 177.32 331.791 178.264 333.679 180.152C335.599 182.008 336.559 184.744 336.559 188.36V203H331.951V188.888C331.951 186.424 331.359 184.568 330.175 183.32C328.991 182.072 327.295 181.448 325.087 181.448C322.591 181.448 320.623 182.184 319.183 183.656C317.743 185.096 317.023 187.176 317.023 189.896V203H312.415V177.56H316.831V181.4C317.759 180.088 319.007 179.08 320.575 178.376C322.175 177.672 323.983 177.32 325.999 177.32ZM368.219 190.424C368.219 190.776 368.187 191.24 368.123 191.816H347.483C347.771 194.056 348.747 195.864 350.411 197.24C352.107 198.584 354.203 199.256 356.699 199.256C359.739 199.256 362.187 198.232 364.043 196.184L366.587 199.16C365.435 200.504 363.995 201.528 362.267 202.232C360.571 202.936 358.667 203.288 356.555 203.288C353.867 203.288 351.483 202.744 349.403 201.656C347.323 200.536 345.707 198.984 344.555 197C343.435 195.016 342.875 192.776 342.875 190.28C342.875 187.816 343.419 185.592 344.507 183.608C345.627 181.624 347.147 180.088 349.067 179C351.019 177.88 353.211 177.32 355.643 177.32C358.075 177.32 360.235 177.88 362.123 179C364.043 180.088 365.531 181.624 366.587 183.608C367.675 185.592 368.219 187.864 368.219 190.424ZM355.643 181.208C353.435 181.208 351.579 181.88 350.075 183.224C348.603 184.568 347.739 186.328 347.483 188.504H363.803C363.547 186.36 362.667 184.616 361.163 183.272C359.691 181.896 357.851 181.208 355.643 181.208ZM412.645 177.56L403.141 203H398.725L391.381 183.704L383.941 203H379.525L370.069 177.56H374.437L381.829 197.816L389.509 177.56H393.397L400.933 197.912L408.517 177.56H412.645ZM443.7 177.32C446.164 177.32 448.372 177.864 450.324 178.952C452.276 180.04 453.796 181.56 454.884 183.512C456.004 185.464 456.564 187.72 456.564 190.28C456.564 192.84 456.004 195.112 454.884 197.096C453.796 199.048 452.276 200.568 450.324 201.656C448.372 202.744 446.164 203.288 443.7 203.288C441.812 203.288 440.084 202.92 438.516 202.184C436.948 201.448 435.652 200.376 434.628 198.968V203H430.212V167.384H434.82V181.4C435.844 180.056 437.124 179.048 438.66 178.376C440.196 177.672 441.876 177.32 443.7 177.32ZM443.316 199.256C444.948 199.256 446.404 198.888 447.684 198.152C448.996 197.384 450.02 196.328 450.756 194.984C451.524 193.608 451.908 192.04 451.908 190.28C451.908 188.52 451.524 186.968 450.756 185.624C450.02 184.248 448.996 183.192 447.684 182.456C446.404 181.72 444.948 181.352 443.316 181.352C441.716 181.352 440.26 181.72 438.948 182.456C437.636 183.192 436.612 184.248 435.876 185.624C435.14 186.968 434.772 188.52 434.772 190.28C434.772 192.04 435.14 193.608 435.876 194.984C436.612 196.328 437.636 197.384 438.948 198.152C440.26 198.888 441.716 199.256 443.316 199.256ZM462.931 177.56H467.539V203H462.931V177.56ZM465.235 172.664C464.339 172.664 463.587 172.376 462.979 171.8C462.403 171.224 462.115 170.52 462.115 169.688C462.115 168.856 462.403 168.152 462.979 167.576C463.587 166.968 464.339 166.664 465.235 166.664C466.131 166.664 466.867 166.952 467.443 167.528C468.051 168.072 468.355 168.76 468.355 169.592C468.355 170.456 468.051 171.192 467.443 171.8C466.867 172.376 466.131 172.664 465.235 172.664ZM487.233 203.288C484.705 203.288 482.433 202.728 480.417 201.608C478.401 200.488 476.817 198.952 475.665 197C474.545 195.016 473.985 192.776 473.985 190.28C473.985 187.784 474.545 185.56 475.665 183.608C476.817 181.624 478.401 180.088 480.417 179C482.433 177.88 484.705 177.32 487.233 177.32C489.761 177.32 492.017 177.88 494.001 179C496.017 180.088 497.585 181.624 498.705 183.608C499.857 185.56 500.433 187.784 500.433 190.28C500.433 192.776 499.857 195.016 498.705 197C497.585 198.952 496.017 200.488 494.001 201.608C492.017 202.728 489.761 203.288 487.233 203.288ZM487.233 199.256C488.865 199.256 490.321 198.888 491.601 198.152C492.913 197.384 493.937 196.328 494.673 194.984C495.409 193.608 495.777 192.04 495.777 190.28C495.777 188.52 495.409 186.968 494.673 185.624C493.937 184.248 492.913 183.192 491.601 182.456C490.321 181.72 488.865 181.352 487.233 181.352C485.601 181.352 484.129 181.72 482.817 182.456C481.537 183.192 480.513 184.248 479.745 185.624C479.009 186.968 478.641 188.52 478.641 190.28C478.641 192.04 479.009 193.608 479.745 194.984C480.513 196.328 481.537 197.384 482.817 198.152C484.129 198.888 485.601 199.256 487.233 199.256ZM538.63 177.32C541.83 177.32 544.358 178.248 546.214 180.104C548.102 181.96 549.046 184.712 549.046 188.36V203H544.438V188.888C544.438 186.424 543.862 184.568 542.71 183.32C541.59 182.072 539.974 181.448 537.862 181.448C535.526 181.448 533.67 182.184 532.294 183.656C530.918 185.096 530.23 187.176 530.23 189.896V203H525.622V188.888C525.622 186.424 525.046 184.568 523.894 183.32C522.774 182.072 521.158 181.448 519.046 181.448C516.71 181.448 514.854 182.184 513.478 183.656C512.102 185.096 511.414 187.176 511.414 189.896V203H506.806V177.56H511.222V181.352C512.15 180.04 513.366 179.048 514.87 178.376C516.374 177.672 518.086 177.32 520.006 177.32C521.99 177.32 523.75 177.72 525.286 178.52C526.822 179.32 528.006 180.488 528.838 182.024C529.798 180.552 531.126 179.4 532.822 178.568C534.55 177.736 536.486 177.32 538.63 177.32ZM580.657 190.424C580.657 190.776 580.625 191.24 580.561 191.816H559.921C560.209 194.056 561.185 195.864 562.849 197.24C564.545 198.584 566.641 199.256 569.137 199.256C572.177 199.256 574.625 198.232 576.481 196.184L579.025 199.16C577.873 200.504 576.433 201.528 574.705 202.232C573.009 202.936 571.105 203.288 568.993 203.288C566.305 203.288 563.921 202.744 561.841 201.656C559.761 200.536 558.145 198.984 556.993 197C555.873 195.016 555.313 192.776 555.313 190.28C555.313 187.816 555.857 185.592 556.945 183.608C558.065 181.624 559.585 180.088 561.505 179C563.457 177.88 565.649 177.32 568.081 177.32C570.513 177.32 572.673 177.88 574.561 179C576.481 180.088 577.969 181.624 579.025 183.608C580.113 185.592 580.657 187.864 580.657 190.424ZM568.081 181.208C565.873 181.208 564.017 181.88 562.513 183.224C561.041 184.568 560.177 186.328 559.921 188.504H576.241C575.985 186.36 575.105 184.616 573.601 183.272C572.129 181.896 570.289 181.208 568.081 181.208ZM611.056 167.384V203H606.64V198.968C605.616 200.376 604.32 201.448 602.752 202.184C601.184 202.92 599.456 203.288 597.568 203.288C595.104 203.288 592.896 202.744 590.944 201.656C588.992 200.568 587.456 199.048 586.336 197.096C585.248 195.112 584.704 192.84 584.704 190.28C584.704 187.72 585.248 185.464 586.336 183.512C587.456 181.56 588.992 180.04 590.944 178.952C592.896 177.864 595.104 177.32 597.568 177.32C599.392 177.32 601.072 177.672 602.608 178.376C604.144 179.048 605.424 180.056 606.448 181.4V167.384H611.056ZM597.952 199.256C599.552 199.256 601.008 198.888 602.32 198.152C603.632 197.384 604.656 196.328 605.392 194.984C606.128 193.608 606.496 192.04 606.496 190.28C606.496 188.52 606.128 186.968 605.392 185.624C604.656 184.248 603.632 183.192 602.32 182.456C601.008 181.72 599.552 181.352 597.952 181.352C596.32 181.352 594.848 181.72 593.536 182.456C592.256 183.192 591.232 184.248 590.464 185.624C589.728 186.968 589.36 188.52 589.36 190.28C589.36 192.04 589.728 193.608 590.464 194.984C591.232 196.328 592.256 197.384 593.536 198.152C594.848 198.888 596.32 199.256 597.952 199.256ZM619.774 177.56H624.382V203H619.774V177.56ZM622.078 172.664C621.182 172.664 620.43 172.376 619.822 171.8C619.246 171.224 618.958 170.52 618.958 169.688C618.958 168.856 619.246 168.152 619.822 167.576C620.43 166.968 621.182 166.664 622.078 166.664C622.974 166.664 623.71 166.952 624.286 167.528C624.894 168.072 625.198 168.76 625.198 169.592C625.198 170.456 624.894 171.192 624.286 171.8C623.71 172.376 622.974 172.664 622.078 172.664ZM644.269 203.288C641.677 203.288 639.357 202.728 637.309 201.608C635.293 200.488 633.709 198.952 632.557 197C631.405 195.016 630.829 192.776 630.829 190.28C630.829 187.784 631.405 185.56 632.557 183.608C633.709 181.624 635.293 180.088 637.309 179C639.357 177.88 641.677 177.32 644.269 177.32C646.573 177.32 648.621 177.784 650.413 178.712C652.237 179.64 653.645 180.984 654.637 182.744L651.133 185C650.333 183.784 649.341 182.872 648.157 182.264C646.973 181.656 645.661 181.352 644.221 181.352C642.557 181.352 641.053 181.72 639.709 182.456C638.397 183.192 637.357 184.248 636.589 185.624C635.853 186.968 635.485 188.52 635.485 190.28C635.485 192.072 635.853 193.656 636.589 195.032C637.357 196.376 638.397 197.416 639.709 198.152C641.053 198.888 642.557 199.256 644.221 199.256C645.661 199.256 646.973 198.952 648.157 198.344C649.341 197.736 650.333 196.824 651.133 195.608L654.637 197.816C653.645 199.576 652.237 200.936 650.413 201.896C648.621 202.824 646.573 203.288 644.269 203.288ZM669.866 177.32C673.386 177.32 676.074 178.184 677.93 179.912C679.818 181.64 680.762 184.216 680.762 187.64V203H676.394V199.64C675.626 200.824 674.522 201.736 673.082 202.376C671.674 202.984 669.994 203.288 668.042 203.288C665.194 203.288 662.906 202.6 661.178 201.224C659.482 199.848 658.634 198.04 658.634 195.8C658.634 193.56 659.45 191.768 661.082 190.424C662.714 189.048 665.306 188.36 668.858 188.36H676.154V187.448C676.154 185.464 675.578 183.944 674.426 182.888C673.274 181.832 671.578 181.304 669.338 181.304C667.834 181.304 666.362 181.56 664.922 182.072C663.482 182.552 662.266 183.208 661.274 184.04L659.354 180.584C660.666 179.528 662.234 178.728 664.058 178.184C665.882 177.608 667.818 177.32 669.866 177.32ZM668.81 199.736C670.57 199.736 672.09 199.352 673.37 198.584C674.65 197.784 675.578 196.664 676.154 195.224V191.672H669.05C665.146 191.672 663.194 192.984 663.194 195.608C663.194 196.888 663.69 197.896 664.682 198.632C665.674 199.368 667.05 199.736 668.81 199.736ZM689.29 167.384H693.898V203H689.29V167.384ZM84.797 260.512C84.125 261.088 83.293 261.536 82.301 261.856C81.309 262.144 80.285 262.288 79.229 262.288C76.669 262.288 74.685 261.6 73.277 260.224C71.869 258.848 71.165 256.88 71.165 254.32V240.352H66.845V236.56H71.165V230.992H75.773V236.56H83.069V240.352H75.773V254.128C75.773 255.504 76.109 256.56 76.781 257.296C77.485 258.032 78.477 258.4 79.757 258.4C81.165 258.4 82.365 258 83.357 257.2L84.797 260.512ZM112.516 249.424C112.516 249.776 112.484 250.24 112.42 250.816H91.7803C92.0683 253.056 93.0443 254.864 94.7083 256.24C96.4043 257.584 98.5003 258.256 100.996 258.256C104.036 258.256 106.484 257.232 108.34 255.184L110.884 258.16C109.732 259.504 108.292 260.528 106.564 261.232C104.868 261.936 102.964 262.288 100.852 262.288C98.1643 262.288 95.7803 261.744 93.7003 260.656C91.6203 259.536 90.0043 257.984 88.8523 256C87.7323 254.016 87.1723 251.776 87.1723 249.28C87.1723 246.816 87.7163 244.592 88.8043 242.608C89.9243 240.624 91.4443 239.088 93.3643 238C95.3163 236.88 97.5083 236.32 99.9403 236.32C102.372 236.32 104.532 236.88 106.42 238C108.34 239.088 109.828 240.624 110.884 242.608C111.972 244.592 112.516 246.864 112.516 249.424ZM99.9403 240.208C97.7323 240.208 95.8763 240.88 94.3723 242.224C92.9003 243.568 92.0363 245.328 91.7803 247.504H108.1C107.844 245.36 106.964 243.616 105.46 242.272C103.988 240.896 102.148 240.208 99.9403 240.208ZM130.003 262.288C127.411 262.288 125.091 261.728 123.043 260.608C121.027 259.488 119.443 257.952 118.291 256C117.139 254.016 116.563 251.776 116.563 249.28C116.563 246.784 117.139 244.56 118.291 242.608C119.443 240.624 121.027 239.088 123.043 238C125.091 236.88 127.411 236.32 130.003 236.32C132.307 236.32 134.355 236.784 136.147 237.712C137.971 238.64 139.379 239.984 140.371 241.744L136.867 244C136.067 242.784 135.075 241.872 133.891 241.264C132.707 240.656 131.395 240.352 129.955 240.352C128.291 240.352 126.787 240.72 125.443 241.456C124.131 242.192 123.091 243.248 122.323 244.624C121.587 245.968 121.219 247.52 121.219 249.28C121.219 251.072 121.587 252.656 122.323 254.032C123.091 255.376 124.131 256.416 125.443 257.152C126.787 257.888 128.291 258.256 129.955 258.256C131.395 258.256 132.707 257.952 133.891 257.344C135.075 256.736 136.067 255.824 136.867 254.608L140.371 256.816C139.379 258.576 137.971 259.936 136.147 260.896C134.355 261.824 132.307 262.288 130.003 262.288ZM159.593 236.32C162.825 236.32 165.385 237.264 167.273 239.152C169.193 241.008 170.153 243.744 170.153 247.36V262H165.545V247.888C165.545 245.424 164.953 243.568 163.769 242.32C162.585 241.072 160.889 240.448 158.681 240.448C156.185 240.448 154.217 241.184 152.777 242.656C151.337 244.096 150.617 246.176 150.617 248.896V262H146.009V226.384H150.617V240.16C151.577 238.944 152.825 238 154.361 237.328C155.929 236.656 157.673 236.32 159.593 236.32ZM202.659 262.288C200.067 262.288 197.747 261.728 195.699 260.608C193.683 259.488 192.099 257.952 190.947 256C189.795 254.016 189.219 251.776 189.219 249.28C189.219 246.784 189.795 244.56 190.947 242.608C192.099 240.624 193.683 239.088 195.699 238C197.747 236.88 200.067 236.32 202.659 236.32C204.963 236.32 207.011 236.784 208.803 237.712C210.627 238.64 212.035 239.984 213.027 241.744L209.523 244C208.723 242.784 207.731 241.872 206.547 241.264C205.363 240.656 204.051 240.352 202.611 240.352C200.947 240.352 199.443 240.72 198.099 241.456C196.787 242.192 195.747 243.248 194.979 244.624C194.243 245.968 193.875 247.52 193.875 249.28C193.875 251.072 194.243 252.656 194.979 254.032C195.747 255.376 196.787 256.416 198.099 257.152C199.443 257.888 200.947 258.256 202.611 258.256C204.051 258.256 205.363 257.952 206.547 257.344C207.731 256.736 208.723 255.824 209.523 254.608L213.027 256.816C212.035 258.576 210.627 259.936 208.803 260.896C207.011 261.824 204.963 262.288 202.659 262.288ZM229.514 262.288C226.986 262.288 224.714 261.728 222.698 260.608C220.682 259.488 219.098 257.952 217.946 256C216.826 254.016 216.266 251.776 216.266 249.28C216.266 246.784 216.826 244.56 217.946 242.608C219.098 240.624 220.682 239.088 222.698 238C224.714 236.88 226.986 236.32 229.514 236.32C232.042 236.32 234.298 236.88 236.282 238C238.298 239.088 239.866 240.624 240.986 242.608C242.138 244.56 242.714 246.784 242.714 249.28C242.714 251.776 242.138 254.016 240.986 256C239.866 257.952 238.298 259.488 236.282 260.608C234.298 261.728 232.042 262.288 229.514 262.288ZM229.514 258.256C231.146 258.256 232.602 257.888 233.882 257.152C235.194 256.384 236.218 255.328 236.954 253.984C237.69 252.608 238.058 251.04 238.058 249.28C238.058 247.52 237.69 245.968 236.954 244.624C236.218 243.248 235.194 242.192 233.882 241.456C232.602 240.72 231.146 240.352 229.514 240.352C227.882 240.352 226.41 240.72 225.098 241.456C223.818 242.192 222.794 243.248 222.026 244.624C221.29 245.968 220.922 247.52 220.922 249.28C220.922 251.04 221.29 252.608 222.026 253.984C222.794 255.328 223.818 256.384 225.098 257.152C226.41 257.888 227.882 258.256 229.514 258.256ZM280.911 236.32C284.111 236.32 286.639 237.248 288.495 239.104C290.383 240.96 291.327 243.712 291.327 247.36V262H286.719V247.888C286.719 245.424 286.143 243.568 284.991 242.32C283.871 241.072 282.255 240.448 280.143 240.448C277.807 240.448 275.951 241.184 274.575 242.656C273.199 244.096 272.511 246.176 272.511 248.896V262H267.903V247.888C267.903 245.424 267.327 243.568 266.175 242.32C265.055 241.072 263.439 240.448 261.327 240.448C258.991 240.448 257.135 241.184 255.759 242.656C254.383 244.096 253.695 246.176 253.695 248.896V262H249.087V236.56H253.503V240.352C254.431 239.04 255.647 238.048 257.151 237.376C258.655 236.672 260.367 236.32 262.287 236.32C264.271 236.32 266.031 236.72 267.567 237.52C269.103 238.32 270.287 239.488 271.119 241.024C272.079 239.552 273.407 238.4 275.103 237.568C276.831 236.736 278.767 236.32 280.911 236.32ZM313.294 236.32C315.758 236.32 317.966 236.864 319.918 237.952C321.87 239.04 323.39 240.56 324.478 242.512C325.598 244.464 326.158 246.72 326.158 249.28C326.158 251.84 325.598 254.112 324.478 256.096C323.39 258.048 321.87 259.568 319.918 260.656C317.966 261.744 315.758 262.288 313.294 262.288C311.47 262.288 309.79 261.936 308.254 261.232C306.75 260.528 305.47 259.504 304.414 258.16V271.312H299.806V236.56H304.222V240.592C305.246 239.184 306.542 238.128 308.109 237.424C309.678 236.688 311.406 236.32 313.294 236.32ZM312.91 258.256C314.542 258.256 315.998 257.888 317.278 257.152C318.59 256.384 319.614 255.328 320.35 253.984C321.118 252.608 321.502 251.04 321.502 249.28C321.502 247.52 321.118 245.968 320.35 244.624C319.614 243.248 318.59 242.192 317.278 241.456C315.998 240.72 314.542 240.352 312.91 240.352C311.31 240.352 309.854 240.736 308.542 241.504C307.262 242.24 306.238 243.28 305.47 244.624C304.734 245.968 304.366 247.52 304.366 249.28C304.366 251.04 304.734 252.608 305.47 253.984C306.206 255.328 307.23 256.384 308.542 257.152C309.854 257.888 311.31 258.256 312.91 258.256ZM341.554 236.32C345.074 236.32 347.762 237.184 349.618 238.912C351.506 240.64 352.45 243.216 352.45 246.64V262H348.082V258.64C347.314 259.824 346.21 260.736 344.77 261.376C343.362 261.984 341.682 262.288 339.73 262.288C336.882 262.288 334.594 261.6 332.866 260.224C331.17 258.848 330.322 257.04 330.322 254.8C330.322 252.56 331.138 250.768 332.77 249.424C334.402 248.048 336.994 247.36 340.546 247.36H347.842V246.448C347.842 244.464 347.266 242.944 346.114 241.888C344.962 240.832 343.266 240.304 341.026 240.304C339.522 240.304 338.05 240.56 336.61 241.072C335.17 241.552 333.954 242.208 332.962 243.04L331.042 239.584C332.354 238.528 333.922 237.728 335.746 237.184C337.57 236.608 339.506 236.32 341.554 236.32ZM340.498 258.736C342.258 258.736 343.778 258.352 345.058 257.584C346.338 256.784 347.266 255.664 347.842 254.224V250.672H340.738C336.834 250.672 334.882 251.984 334.882 254.608C334.882 255.888 335.378 256.896 336.37 257.632C337.362 258.368 338.738 258.736 340.498 258.736ZM374.561 236.32C377.793 236.32 380.353 237.264 382.241 239.152C384.161 241.008 385.121 243.744 385.121 247.36V262H380.513V247.888C380.513 245.424 379.921 243.568 378.737 242.32C377.553 241.072 375.857 240.448 373.649 240.448C371.153 240.448 369.185 241.184 367.745 242.656C366.305 244.096 365.585 246.176 365.585 248.896V262H360.977V236.56H365.393V240.4C366.321 239.088 367.569 238.08 369.137 237.376C370.737 236.672 372.545 236.32 374.561 236.32ZM415.693 236.56L403.357 264.544C402.269 267.136 400.989 268.96 399.517 270.016C398.077 271.072 396.333 271.6 394.285 271.6C393.037 271.6 391.821 271.392 390.637 270.976C389.485 270.592 388.524 270.016 387.756 269.248L389.725 265.792C391.037 267.04 392.557 267.664 394.285 267.664C395.405 267.664 396.333 267.36 397.069 266.752C397.837 266.176 398.525 265.168 399.133 263.728L399.949 261.952L388.716 236.56H393.517L402.397 256.912L411.181 236.56H415.693ZM442.196 229.888C439.444 229.888 438.068 231.376 438.068 234.352V236.56H445.46V240.352H438.164V262H433.556V240.352H429.236V236.56H433.556V234.304C433.556 231.776 434.292 229.776 435.764 228.304C437.236 226.832 439.3 226.096 441.956 226.096C442.98 226.096 443.94 226.224 444.836 226.48C445.732 226.736 446.5 227.104 447.14 227.584L445.748 231.088C444.692 230.288 443.508 229.888 442.196 229.888ZM460.327 262.288C457.799 262.288 455.527 261.728 453.511 260.608C451.495 259.488 449.911 257.952 448.759 256C447.639 254.016 447.079 251.776 447.079 249.28C447.079 246.784 447.639 244.56 448.759 242.608C449.911 240.624 451.495 239.088 453.511 238C455.527 236.88 457.799 236.32 460.327 236.32C462.855 236.32 465.111 236.88 467.095 238C469.111 239.088 470.679 240.624 471.799 242.608C472.951 244.56 473.527 246.784 473.527 249.28C473.527 251.776 472.951 254.016 471.799 256C470.679 257.952 469.111 259.488 467.095 260.608C465.111 261.728 462.855 262.288 460.327 262.288ZM460.327 258.256C461.959 258.256 463.415 257.888 464.695 257.152C466.007 256.384 467.031 255.328 467.767 253.984C468.503 252.608 468.871 251.04 468.871 249.28C468.871 247.52 468.503 245.968 467.767 244.624C467.031 243.248 466.007 242.192 464.695 241.456C463.415 240.72 461.959 240.352 460.327 240.352C458.695 240.352 457.223 240.72 455.911 241.456C454.631 242.192 453.607 243.248 452.839 244.624C452.103 245.968 451.735 247.52 451.735 249.28C451.735 251.04 452.103 252.608 452.839 253.984C453.607 255.328 454.631 256.384 455.911 257.152C457.223 257.888 458.695 258.256 460.327 258.256ZM490.987 262.288C488.395 262.288 486.075 261.728 484.027 260.608C482.011 259.488 480.427 257.952 479.275 256C478.123 254.016 477.547 251.776 477.547 249.28C477.547 246.784 478.123 244.56 479.275 242.608C480.427 240.624 482.011 239.088 484.027 238C486.075 236.88 488.395 236.32 490.987 236.32C493.291 236.32 495.339 236.784 497.131 237.712C498.955 238.64 500.363 239.984 501.355 241.744L497.851 244C497.051 242.784 496.059 241.872 494.875 241.264C493.691 240.656 492.379 240.352 490.939 240.352C489.275 240.352 487.771 240.72 486.427 241.456C485.115 242.192 484.075 243.248 483.307 244.624C482.571 245.968 482.203 247.52 482.203 249.28C482.203 251.072 482.571 252.656 483.307 254.032C484.075 255.376 485.115 256.416 486.427 257.152C487.771 257.888 489.275 258.256 490.939 258.256C492.379 258.256 493.691 257.952 494.875 257.344C496.059 256.736 497.051 255.824 497.851 254.608L501.355 256.816C500.363 258.576 498.955 259.936 497.131 260.896C495.339 261.824 493.291 262.288 490.987 262.288ZM531.033 236.56V262H526.665V258.16C525.737 259.472 524.505 260.496 522.969 261.232C521.465 261.936 519.817 262.288 518.025 262.288C514.633 262.288 511.961 261.36 510.009 259.504C508.057 257.616 507.081 254.848 507.081 251.2V236.56H511.689V250.672C511.689 253.136 512.281 255.008 513.465 256.288C514.649 257.536 516.345 258.16 518.553 258.16C520.985 258.16 522.905 257.424 524.313 255.952C525.721 254.48 526.425 252.4 526.425 249.712V236.56H531.033ZM547.102 262.288C545.022 262.288 543.022 262.016 541.102 261.472C539.182 260.896 537.678 260.176 536.59 259.312L538.51 255.664C539.63 256.464 540.99 257.104 542.59 257.584C544.19 258.064 545.806 258.304 547.438 258.304C551.47 258.304 553.486 257.152 553.486 254.848C553.486 254.08 553.214 253.472 552.67 253.024C552.126 252.576 551.438 252.256 550.606 252.064C549.806 251.84 548.654 251.6 547.15 251.344C545.102 251.024 543.422 250.656 542.11 250.24C540.83 249.824 539.726 249.12 538.798 248.128C537.87 247.136 537.406 245.744 537.406 243.952C537.406 241.648 538.366 239.808 540.286 238.432C542.206 237.024 544.782 236.32 548.014 236.32C549.71 236.32 551.406 236.528 553.102 236.944C554.798 237.36 556.19 237.92 557.278 238.624L555.31 242.272C553.23 240.928 550.782 240.256 547.966 240.256C546.014 240.256 544.526 240.576 543.502 241.216C542.478 241.856 541.966 242.704 541.966 243.76C541.966 244.592 542.254 245.248 542.83 245.728C543.406 246.208 544.11 246.56 544.942 246.784C545.806 247.008 547.006 247.264 548.542 247.552C550.59 247.904 552.238 248.288 553.486 248.704C554.766 249.088 555.854 249.76 556.75 250.72C557.646 251.68 558.094 253.024 558.094 254.752C558.094 257.056 557.102 258.896 555.118 260.272C553.166 261.616 550.494 262.288 547.102 262.288ZM563.852 236.56H568.46V262H563.852V236.56ZM566.156 231.664C565.26 231.664 564.508 231.376 563.9 230.8C563.324 230.224 563.036 229.52 563.036 228.688C563.036 227.856 563.324 227.152 563.9 226.576C564.508 225.968 565.26 225.664 566.156 225.664C567.052 225.664 567.788 225.952 568.364 226.528C568.972 227.072 569.276 227.76 569.276 228.592C569.276 229.456 568.972 230.192 568.364 230.8C567.788 231.376 567.052 231.664 566.156 231.664ZM590.843 236.32C594.075 236.32 596.635 237.264 598.523 239.152C600.443 241.008 601.403 243.744 601.403 247.36V262H596.795V247.888C596.795 245.424 596.203 243.568 595.019 242.32C593.835 241.072 592.139 240.448 589.931 240.448C587.435 240.448 585.467 241.184 584.027 242.656C582.587 244.096 581.867 246.176 581.867 248.896V262H577.259V236.56H581.675V240.4C582.603 239.088 583.851 238.08 585.419 237.376C587.019 236.672 588.827 236.32 590.843 236.32ZM634.407 236.56V258.544C634.407 262.992 633.303 266.272 631.095 268.384C628.887 270.528 625.591 271.6 621.207 271.6C618.807 271.6 616.519 271.264 614.343 270.592C612.167 269.952 610.407 269.024 609.063 267.808L611.271 264.256C612.455 265.28 613.911 266.08 615.639 266.656C617.399 267.264 619.207 267.568 621.063 267.568C624.039 267.568 626.231 266.864 627.639 265.456C629.079 264.048 629.799 261.904 629.799 259.024V257.008C628.711 258.32 627.367 259.312 625.767 259.984C624.199 260.624 622.487 260.944 620.631 260.944C618.199 260.944 615.991 260.432 614.007 259.408C612.055 258.352 610.519 256.896 609.399 255.04C608.279 253.152 607.719 251.008 607.719 248.608C607.719 246.208 608.279 244.08 609.399 242.224C610.519 240.336 612.055 238.88 614.007 237.856C615.991 236.832 618.199 236.32 620.631 236.32C622.551 236.32 624.327 236.672 625.959 237.376C627.623 238.08 628.983 239.12 630.039 240.496V236.56H634.407ZM621.159 256.912C622.823 256.912 624.311 256.56 625.623 255.856C626.967 255.152 628.007 254.176 628.743 252.928C629.511 251.648 629.895 250.208 629.895 248.608C629.895 246.144 629.079 244.16 627.447 242.656C625.815 241.12 623.719 240.352 621.159 240.352C618.567 240.352 616.455 241.12 614.823 242.656C613.191 244.16 612.375 246.144 612.375 248.608C612.375 250.208 612.743 251.648 613.479 252.928C614.247 254.176 615.287 255.152 616.599 255.856C617.943 256.56 619.463 256.912 621.159 256.912ZM666.998 262.288C664.47 262.288 662.198 261.728 660.182 260.608C658.166 259.488 656.582 257.952 655.43 256C654.31 254.016 653.75 251.776 653.75 249.28C653.75 246.784 654.31 244.56 655.43 242.608C656.582 240.624 658.166 239.088 660.182 238C662.198 236.88 664.47 236.32 666.998 236.32C669.526 236.32 671.782 236.88 673.766 238C675.782 239.088 677.35 240.624 678.47 242.608C679.622 244.56 680.198 246.784 680.198 249.28C680.198 251.776 679.622 254.016 678.47 256C677.35 257.952 675.782 259.488 673.766 260.608C671.782 261.728 669.526 262.288 666.998 262.288ZM666.998 258.256C668.63 258.256 670.086 257.888 671.366 257.152C672.678 256.384 673.702 255.328 674.438 253.984C675.174 252.608 675.542 251.04 675.542 249.28C675.542 247.52 675.174 245.968 674.438 244.624C673.702 243.248 672.678 242.192 671.366 241.456C670.086 240.72 668.63 240.352 666.998 240.352C665.366 240.352 663.894 240.72 662.582 241.456C661.302 242.192 660.278 243.248 659.51 244.624C658.774 245.968 658.406 247.52 658.406 249.28C658.406 251.04 658.774 252.608 659.51 253.984C660.278 255.328 661.302 256.384 662.582 257.152C663.894 257.888 665.366 258.256 666.998 258.256ZM700.155 236.32C703.387 236.32 705.947 237.264 707.835 239.152C709.755 241.008 710.715 243.744 710.715 247.36V262H706.107V247.888C706.107 245.424 705.515 243.568 704.331 242.32C703.147 241.072 701.451 240.448 699.243 240.448C696.747 240.448 694.779 241.184 693.339 242.656C691.899 244.096 691.179 246.176 691.179 248.896V262H686.571V236.56H690.987V240.4C691.915 239.088 693.163 238.08 694.731 237.376C696.331 236.672 698.139 236.32 700.155 236.32ZM173.578 319.512C172.906 320.088 172.074 320.536 171.082 320.856C170.09 321.144 169.066 321.288 168.01 321.288C165.45 321.288 163.466 320.6 162.058 319.224C160.65 317.848 159.946 315.88 159.946 313.32V299.352H155.626V295.56H159.946V289.992H164.554V295.56H171.85V299.352H164.554V313.128C164.554 314.504 164.89 315.56 165.562 316.296C166.266 317.032 167.258 317.4 168.538 317.4C169.946 317.4 171.146 317 172.138 316.2L173.578 319.512ZM192.733 295.32C195.965 295.32 198.525 296.264 200.413 298.152C202.333 300.008 203.293 302.744 203.293 306.36V321H198.685V306.888C198.685 304.424 198.093 302.568 196.909 301.32C195.725 300.072 194.029 299.448 191.821 299.448C189.325 299.448 187.357 300.184 185.917 301.656C184.477 303.096 183.757 305.176 183.757 307.896V321H179.149V285.384H183.757V299.16C184.717 297.944 185.965 297 187.501 296.328C189.069 295.656 190.813 295.32 192.733 295.32ZM234.954 308.424C234.954 308.776 234.922 309.24 234.858 309.816H214.218C214.506 312.056 215.482 313.864 217.146 315.24C218.842 316.584 220.938 317.256 223.434 317.256C226.474 317.256 228.922 316.232 230.778 314.184L233.322 317.16C232.17 318.504 230.73 319.528 229.002 320.232C227.306 320.936 225.402 321.288 223.29 321.288C220.602 321.288 218.218 320.744 216.138 319.656C214.058 318.536 212.442 316.984 211.29 315C210.17 313.016 209.61 310.776 209.61 308.28C209.61 305.816 210.154 303.592 211.242 301.608C212.362 299.624 213.882 298.088 215.802 297C217.754 295.88 219.946 295.32 222.378 295.32C224.81 295.32 226.97 295.88 228.858 297C230.778 298.088 232.266 299.624 233.322 301.608C234.41 303.592 234.954 305.864 234.954 308.424ZM222.378 299.208C220.17 299.208 218.314 299.88 216.81 301.224C215.338 302.568 214.474 304.328 214.218 306.504H230.538C230.282 304.36 229.402 302.616 227.898 301.272C226.426 299.896 224.586 299.208 222.378 299.208ZM265.331 321.288C262.739 321.288 260.419 320.728 258.371 319.608C256.355 318.488 254.771 316.952 253.619 315C252.467 313.016 251.891 310.776 251.891 308.28C251.891 305.784 252.467 303.56 253.619 301.608C254.771 299.624 256.355 298.088 258.371 297C260.419 295.88 262.739 295.32 265.331 295.32C267.635 295.32 269.683 295.784 271.475 296.712C273.299 297.64 274.707 298.984 275.699 300.744L272.195 303C271.395 301.784 270.403 300.872 269.219 300.264C268.035 299.656 266.723 299.352 265.283 299.352C263.619 299.352 262.115 299.72 260.771 300.456C259.459 301.192 258.419 302.248 257.651 303.624C256.915 304.968 256.547 306.52 256.547 308.28C256.547 310.072 256.915 311.656 257.651 313.032C258.419 314.376 259.459 315.416 260.771 316.152C262.115 316.888 263.619 317.256 265.283 317.256C266.723 317.256 268.035 316.952 269.219 316.344C270.403 315.736 271.395 314.824 272.195 313.608L275.699 315.816C274.707 317.576 273.299 318.936 271.475 319.896C269.683 320.824 267.635 321.288 265.331 321.288ZM305.377 295.56V321H301.009V317.16C300.081 318.472 298.849 319.496 297.313 320.232C295.809 320.936 294.161 321.288 292.369 321.288C288.977 321.288 286.305 320.36 284.353 318.504C282.401 316.616 281.425 313.848 281.425 310.2V295.56H286.033V309.672C286.033 312.136 286.625 314.008 287.809 315.288C288.993 316.536 290.689 317.16 292.897 317.16C295.329 317.16 297.249 316.424 298.657 314.952C300.065 313.48 300.769 311.4 300.769 308.712V295.56H305.377ZM328.453 319.512C327.781 320.088 326.949 320.536 325.957 320.856C324.965 321.144 323.941 321.288 322.885 321.288C320.325 321.288 318.341 320.6 316.933 319.224C315.525 317.848 314.821 315.88 314.821 313.32V299.352H310.501V295.56H314.821V289.992H319.429V295.56H326.725V299.352H319.429V313.128C319.429 314.504 319.765 315.56 320.437 316.296C321.141 317.032 322.133 317.4 323.413 317.4C324.821 317.4 326.021 317 327.013 316.2L328.453 319.512ZM347.719 319.512C347.047 320.088 346.215 320.536 345.223 320.856C344.231 321.144 343.207 321.288 342.151 321.288C339.591 321.288 337.607 320.6 336.199 319.224C334.791 317.848 334.087 315.88 334.087 313.32V299.352H329.767V295.56H334.087V289.992H338.695V295.56H345.991V299.352H338.695V313.128C338.695 314.504 339.031 315.56 339.703 316.296C340.407 317.032 341.399 317.4 342.679 317.4C344.087 317.4 345.287 317 346.279 316.2L347.719 319.512ZM353.29 295.56H357.898V321H353.29V295.56ZM355.594 290.664C354.698 290.664 353.946 290.376 353.338 289.8C352.762 289.224 352.474 288.52 352.474 287.688C352.474 286.856 352.762 286.152 353.338 285.576C353.946 284.968 354.698 284.664 355.594 284.664C356.49 284.664 357.226 284.952 357.802 285.528C358.41 286.072 358.714 286.76 358.714 287.592C358.714 288.456 358.41 289.192 357.802 289.8C357.226 290.376 356.49 290.664 355.594 290.664ZM380.28 295.32C383.512 295.32 386.072 296.264 387.96 298.152C389.88 300.008 390.84 302.744 390.84 306.36V321H386.232V306.888C386.232 304.424 385.64 302.568 384.456 301.32C383.272 300.072 381.576 299.448 379.368 299.448C376.872 299.448 374.904 300.184 373.464 301.656C372.024 303.096 371.304 305.176 371.304 307.896V321H366.696V295.56H371.112V299.4C372.04 298.088 373.288 297.08 374.856 296.376C376.456 295.672 378.264 295.32 380.28 295.32ZM423.845 295.56V317.544C423.845 321.992 422.741 325.272 420.533 327.384C418.325 329.528 415.029 330.6 410.645 330.6C408.245 330.6 405.957 330.264 403.781 329.592C401.605 328.952 399.845 328.024 398.501 326.808L400.709 323.256C401.893 324.28 403.349 325.08 405.077 325.656C406.837 326.264 408.645 326.568 410.501 326.568C413.477 326.568 415.669 325.864 417.077 324.456C418.517 323.048 419.237 320.904 419.237 318.024V316.008C418.149 317.32 416.805 318.312 415.205 318.984C413.637 319.624 411.925 319.944 410.069 319.944C407.637 319.944 405.429 319.432 403.445 318.408C401.493 317.352 399.957 315.896 398.837 314.04C397.717 312.152 397.157 310.008 397.157 307.608C397.157 305.208 397.717 303.08 398.837 301.224C399.957 299.336 401.493 297.88 403.445 296.856C405.429 295.832 407.637 295.32 410.069 295.32C411.989 295.32 413.765 295.672 415.397 296.376C417.061 297.08 418.421 298.12 419.477 299.496V295.56H423.845ZM410.597 315.912C412.261 315.912 413.749 315.56 415.061 314.856C416.405 314.152 417.445 313.176 418.181 311.928C418.949 310.648 419.333 309.208 419.333 307.608C419.333 305.144 418.517 303.16 416.885 301.656C415.253 300.12 413.157 299.352 410.597 299.352C408.005 299.352 405.893 300.12 404.261 301.656C402.629 303.16 401.813 305.144 401.813 307.608C401.813 309.208 402.181 310.648 402.917 311.928C403.685 313.176 404.725 314.152 406.037 314.856C407.381 315.56 408.901 315.912 410.597 315.912ZM468.532 308.424C468.532 308.776 468.5 309.24 468.436 309.816H447.796C448.084 312.056 449.06 313.864 450.724 315.24C452.42 316.584 454.516 317.256 457.012 317.256C460.052 317.256 462.5 316.232 464.356 314.184L466.9 317.16C465.748 318.504 464.308 319.528 462.58 320.232C460.884 320.936 458.98 321.288 456.868 321.288C454.18 321.288 451.796 320.744 449.716 319.656C447.636 318.536 446.02 316.984 444.868 315C443.748 313.016 443.188 310.776 443.188 308.28C443.188 305.816 443.732 303.592 444.82 301.608C445.94 299.624 447.46 298.088 449.38 297C451.332 295.88 453.524 295.32 455.956 295.32C458.388 295.32 460.548 295.88 462.436 297C464.356 298.088 465.844 299.624 466.9 301.608C467.988 303.592 468.532 305.864 468.532 308.424ZM455.956 299.208C453.748 299.208 451.892 299.88 450.388 301.224C448.916 302.568 448.052 304.328 447.796 306.504H464.116C463.86 304.36 462.98 302.616 461.476 301.272C460.004 299.896 458.164 299.208 455.956 299.208ZM498.931 285.384V321H494.515V316.968C493.491 318.376 492.195 319.448 490.627 320.184C489.059 320.92 487.331 321.288 485.443 321.288C482.979 321.288 480.771 320.744 478.819 319.656C476.867 318.568 475.331 317.048 474.211 315.096C473.123 313.112 472.579 310.84 472.579 308.28C472.579 305.72 473.123 303.464 474.211 301.512C475.331 299.56 476.867 298.04 478.819 296.952C480.771 295.864 482.979 295.32 485.443 295.32C487.267 295.32 488.947 295.672 490.483 296.376C492.019 297.048 493.299 298.056 494.323 299.4V285.384H498.931ZM485.827 317.256C487.427 317.256 488.883 316.888 490.195 316.152C491.507 315.384 492.531 314.328 493.267 312.984C494.003 311.608 494.371 310.04 494.371 308.28C494.371 306.52 494.003 304.968 493.267 303.624C492.531 302.248 491.507 301.192 490.195 300.456C488.883 299.72 487.427 299.352 485.827 299.352C484.195 299.352 482.723 299.72 481.411 300.456C480.131 301.192 479.107 302.248 478.339 303.624C477.603 304.968 477.235 306.52 477.235 308.28C477.235 310.04 477.603 311.608 478.339 312.984C479.107 314.328 480.131 315.384 481.411 316.152C482.723 316.888 484.195 317.256 485.827 317.256ZM531.985 295.56V317.544C531.985 321.992 530.881 325.272 528.673 327.384C526.465 329.528 523.169 330.6 518.785 330.6C516.385 330.6 514.097 330.264 511.921 329.592C509.745 328.952 507.985 328.024 506.641 326.808L508.849 323.256C510.033 324.28 511.489 325.08 513.217 325.656C514.977 326.264 516.785 326.568 518.641 326.568C521.617 326.568 523.809 325.864 525.217 324.456C526.657 323.048 527.377 320.904 527.377 318.024V316.008C526.289 317.32 524.945 318.312 523.345 318.984C521.777 319.624 520.065 319.944 518.209 319.944C515.777 319.944 513.569 319.432 511.585 318.408C509.633 317.352 508.097 315.896 506.977 314.04C505.857 312.152 505.297 310.008 505.297 307.608C505.297 305.208 505.857 303.08 506.977 301.224C508.097 299.336 509.633 297.88 511.585 296.856C513.569 295.832 515.777 295.32 518.209 295.32C520.129 295.32 521.905 295.672 523.537 296.376C525.201 297.08 526.561 298.12 527.617 299.496V295.56H531.985ZM518.737 315.912C520.401 315.912 521.889 315.56 523.201 314.856C524.545 314.152 525.585 313.176 526.321 311.928C527.089 310.648 527.473 309.208 527.473 307.608C527.473 305.144 526.657 303.16 525.025 301.656C523.393 300.12 521.297 299.352 518.737 299.352C516.145 299.352 514.033 300.12 512.401 301.656C510.769 303.16 509.953 305.144 509.953 307.608C509.953 309.208 510.321 310.648 511.057 311.928C511.825 313.176 512.865 314.152 514.177 314.856C515.521 315.56 517.041 315.912 518.737 315.912ZM563.782 308.424C563.782 308.776 563.75 309.24 563.686 309.816H543.046C543.334 312.056 544.31 313.864 545.974 315.24C547.67 316.584 549.766 317.256 552.262 317.256C555.302 317.256 557.75 316.232 559.606 314.184L562.15 317.16C560.998 318.504 559.558 319.528 557.83 320.232C556.134 320.936 554.23 321.288 552.118 321.288C549.43 321.288 547.046 320.744 544.966 319.656C542.886 318.536 541.27 316.984 540.118 315C538.998 313.016 538.438 310.776 538.438 308.28C538.438 305.816 538.982 303.592 540.07 301.608C541.19 299.624 542.71 298.088 544.63 297C546.582 295.88 548.774 295.32 551.206 295.32C553.638 295.32 555.798 295.88 557.686 297C559.606 298.088 561.094 299.624 562.15 301.608C563.238 303.592 563.782 305.864 563.782 308.424ZM551.206 299.208C548.998 299.208 547.142 299.88 545.638 301.224C544.166 302.568 543.302 304.328 543.046 306.504H559.366C559.11 304.36 558.23 302.616 556.726 301.272C555.254 299.896 553.414 299.208 551.206 299.208ZM593.967 321.288C591.439 321.288 589.167 320.728 587.151 319.608C585.135 318.488 583.551 316.952 582.399 315C581.279 313.016 580.719 310.776 580.719 308.28C580.719 305.784 581.279 303.56 582.399 301.608C583.551 299.624 585.135 298.088 587.151 297C589.167 295.88 591.439 295.32 593.967 295.32C596.495 295.32 598.751 295.88 600.735 297C602.751 298.088 604.319 299.624 605.439 301.608C606.591 303.56 607.167 305.784 607.167 308.28C607.167 310.776 606.591 313.016 605.439 315C604.319 316.952 602.751 318.488 600.735 319.608C598.751 320.728 596.495 321.288 593.967 321.288ZM593.967 317.256C595.599 317.256 597.055 316.888 598.335 316.152C599.647 315.384 600.671 314.328 601.407 312.984C602.143 311.608 602.511 310.04 602.511 308.28C602.511 306.52 602.143 304.968 601.407 303.624C600.671 302.248 599.647 301.192 598.335 300.456C597.055 299.72 595.599 299.352 593.967 299.352C592.335 299.352 590.863 299.72 589.551 300.456C588.271 301.192 587.247 302.248 586.479 303.624C585.743 304.968 585.375 306.52 585.375 308.28C585.375 310.04 585.743 311.608 586.479 312.984C587.247 314.328 588.271 315.384 589.551 316.152C590.863 316.888 592.335 317.256 593.967 317.256ZM622.852 288.888C620.1 288.888 618.724 290.376 618.724 293.352V295.56H626.116V299.352H618.82V321H614.212V299.352H609.892V295.56H614.212V293.304C614.212 290.776 614.948 288.776 616.42 287.304C617.892 285.832 619.956 285.096 622.612 285.096C623.636 285.096 624.596 285.224 625.492 285.48C626.388 285.736 627.156 286.104 627.796 286.584L626.404 290.088C625.348 289.288 624.164 288.888 622.852 288.888ZM83.618 354.56H88.226V380H83.618V354.56ZM85.922 349.664C85.026 349.664 84.274 349.376 83.666 348.8C83.09 348.224 82.802 347.52 82.802 346.688C82.802 345.856 83.09 345.152 83.666 344.576C84.274 343.968 85.026 343.664 85.922 343.664C86.818 343.664 87.554 343.952 88.13 344.528C88.738 345.072 89.042 345.76 89.042 346.592C89.042 347.456 88.738 348.192 88.13 348.8C87.554 349.376 86.818 349.664 85.922 349.664ZM110.608 354.32C113.84 354.32 116.4 355.264 118.288 357.152C120.208 359.008 121.168 361.744 121.168 365.36V380H116.56V365.888C116.56 363.424 115.968 361.568 114.784 360.32C113.6 359.072 111.904 358.448 109.696 358.448C107.2 358.448 105.232 359.184 103.792 360.656C102.352 362.096 101.632 364.176 101.632 366.896V380H97.0243V354.56H101.44V358.4C102.368 357.088 103.616 356.08 105.184 355.376C106.784 354.672 108.592 354.32 110.608 354.32ZM143.28 354.32C146.512 354.32 149.072 355.264 150.96 357.152C152.88 359.008 153.84 361.744 153.84 365.36V380H149.232V365.888C149.232 363.424 148.64 361.568 147.456 360.32C146.272 359.072 144.576 358.448 142.368 358.448C139.872 358.448 137.904 359.184 136.464 360.656C135.024 362.096 134.304 364.176 134.304 366.896V380H129.696V354.56H134.112V358.4C135.04 357.088 136.288 356.08 137.856 355.376C139.456 354.672 141.264 354.32 143.28 354.32ZM173.405 380.288C170.877 380.288 168.605 379.728 166.589 378.608C164.573 377.488 162.989 375.952 161.837 374C160.717 372.016 160.157 369.776 160.157 367.28C160.157 364.784 160.717 362.56 161.837 360.608C162.989 358.624 164.573 357.088 166.589 356C168.605 354.88 170.877 354.32 173.405 354.32C175.933 354.32 178.189 354.88 180.173 356C182.189 357.088 183.757 358.624 184.877 360.608C186.029 362.56 186.605 364.784 186.605 367.28C186.605 369.776 186.029 372.016 184.877 374C183.757 375.952 182.189 377.488 180.173 378.608C178.189 379.728 175.933 380.288 173.405 380.288ZM173.405 376.256C175.037 376.256 176.493 375.888 177.773 375.152C179.085 374.384 180.109 373.328 180.845 371.984C181.581 370.608 181.949 369.04 181.949 367.28C181.949 365.52 181.581 363.968 180.845 362.624C180.109 361.248 179.085 360.192 177.773 359.456C176.493 358.72 175.037 358.352 173.405 358.352C171.773 358.352 170.301 358.72 168.989 359.456C167.709 360.192 166.685 361.248 165.917 362.624C165.181 363.968 164.813 365.52 164.813 367.28C164.813 369.04 165.181 370.608 165.917 371.984C166.685 373.328 167.709 374.384 168.989 375.152C170.301 375.888 171.773 376.256 173.405 376.256ZM214.786 354.56L203.65 380H198.946L187.81 354.56H192.61L201.346 374.96L210.274 354.56H214.786ZM227.554 354.32C231.074 354.32 233.762 355.184 235.618 356.912C237.506 358.64 238.45 361.216 238.45 364.64V380H234.082V376.64C233.314 377.824 232.21 378.736 230.77 379.376C229.362 379.984 227.682 380.288 225.73 380.288C222.882 380.288 220.594 379.6 218.866 378.224C217.17 376.848 216.322 375.04 216.322 372.8C216.322 370.56 217.138 368.768 218.77 367.424C220.402 366.048 222.994 365.36 226.546 365.36H233.842V364.448C233.842 362.464 233.266 360.944 232.114 359.888C230.962 358.832 229.266 358.304 227.026 358.304C225.522 358.304 224.05 358.56 222.61 359.072C221.17 359.552 219.954 360.208 218.962 361.04L217.042 357.584C218.354 356.528 219.922 355.728 221.746 355.184C223.57 354.608 225.506 354.32 227.554 354.32ZM226.498 376.736C228.258 376.736 229.778 376.352 231.058 375.584C232.338 374.784 233.266 373.664 233.842 372.224V368.672H226.738C222.834 368.672 220.882 369.984 220.882 372.608C220.882 373.888 221.378 374.896 222.37 375.632C223.362 376.368 224.738 376.736 226.498 376.736ZM261.281 378.512C260.609 379.088 259.777 379.536 258.785 379.856C257.793 380.144 256.769 380.288 255.713 380.288C253.153 380.288 251.169 379.6 249.761 378.224C248.353 376.848 247.649 374.88 247.649 372.32V358.352H243.329V354.56H247.649V348.992H252.257V354.56H259.553V358.352H252.257V372.128C252.257 373.504 252.593 374.56 253.265 375.296C253.969 376.032 254.961 376.4 256.241 376.4C257.649 376.4 258.849 376 259.841 375.2L261.281 378.512ZM266.852 354.56H271.46V380H266.852V354.56ZM269.156 349.664C268.26 349.664 267.508 349.376 266.9 348.8C266.324 348.224 266.036 347.52 266.036 346.688C266.036 345.856 266.324 345.152 266.9 344.576C267.508 343.968 268.26 343.664 269.156 343.664C270.052 343.664 270.788 343.952 271.364 344.528C271.972 345.072 272.276 345.76 272.276 346.592C272.276 347.456 271.972 348.192 271.364 348.8C270.788 349.376 270.052 349.664 269.156 349.664ZM291.155 380.288C288.627 380.288 286.355 379.728 284.339 378.608C282.323 377.488 280.739 375.952 279.587 374C278.467 372.016 277.907 369.776 277.907 367.28C277.907 364.784 278.467 362.56 279.587 360.608C280.739 358.624 282.323 357.088 284.339 356C286.355 354.88 288.627 354.32 291.155 354.32C293.683 354.32 295.939 354.88 297.923 356C299.939 357.088 301.507 358.624 302.627 360.608C303.779 362.56 304.355 364.784 304.355 367.28C304.355 369.776 303.779 372.016 302.627 374C301.507 375.952 299.939 377.488 297.923 378.608C295.939 379.728 293.683 380.288 291.155 380.288ZM291.155 376.256C292.787 376.256 294.243 375.888 295.523 375.152C296.835 374.384 297.859 373.328 298.595 371.984C299.331 370.608 299.699 369.04 299.699 367.28C299.699 365.52 299.331 363.968 298.595 362.624C297.859 361.248 296.835 360.192 295.523 359.456C294.243 358.72 292.787 358.352 291.155 358.352C289.523 358.352 288.051 358.72 286.739 359.456C285.459 360.192 284.435 361.248 283.667 362.624C282.931 363.968 282.563 365.52 282.563 367.28C282.563 369.04 282.931 370.608 283.667 371.984C284.435 373.328 285.459 374.384 286.739 375.152C288.051 375.888 289.523 376.256 291.155 376.256ZM324.311 354.32C327.543 354.32 330.103 355.264 331.991 357.152C333.911 359.008 334.871 361.744 334.871 365.36V380H330.263V365.888C330.263 363.424 329.671 361.568 328.487 360.32C327.303 359.072 325.607 358.448 323.399 358.448C320.903 358.448 318.935 359.184 317.495 360.656C316.055 362.096 315.335 364.176 315.335 366.896V380H310.727V354.56H315.143V358.4C316.071 357.088 317.319 356.08 318.887 355.376C320.487 354.672 322.295 354.32 324.311 354.32ZM356.29 354.56H360.898V380H356.29V354.56ZM358.594 349.664C357.698 349.664 356.946 349.376 356.338 348.8C355.762 348.224 355.474 347.52 355.474 346.688C355.474 345.856 355.762 345.152 356.338 344.576C356.946 343.968 357.698 343.664 358.594 343.664C359.49 343.664 360.226 343.952 360.802 344.528C361.41 345.072 361.714 345.76 361.714 346.592C361.714 347.456 361.41 348.192 360.802 348.8C360.226 349.376 359.49 349.664 358.594 349.664ZM383.28 354.32C386.512 354.32 389.072 355.264 390.96 357.152C392.88 359.008 393.84 361.744 393.84 365.36V380H389.232V365.888C389.232 363.424 388.64 361.568 387.456 360.32C386.272 359.072 384.576 358.448 382.368 358.448C379.872 358.448 377.904 359.184 376.464 360.656C375.024 362.096 374.304 364.176 374.304 366.896V380H369.696V354.56H374.112V358.4C375.04 357.088 376.288 356.08 377.856 355.376C379.456 354.672 381.264 354.32 383.28 354.32ZM429.563 378.512C428.891 379.088 428.059 379.536 427.067 379.856C426.075 380.144 425.051 380.288 423.995 380.288C421.435 380.288 419.451 379.6 418.043 378.224C416.635 376.848 415.931 374.88 415.931 372.32V358.352H411.611V354.56H415.931V348.992H420.539V354.56H427.835V358.352H420.539V372.128C420.539 373.504 420.875 374.56 421.547 375.296C422.251 376.032 423.243 376.4 424.523 376.4C425.931 376.4 427.131 376 428.123 375.2L429.563 378.512ZM448.718 354.32C451.95 354.32 454.51 355.264 456.398 357.152C458.318 359.008 459.278 361.744 459.278 365.36V380H454.67V365.888C454.67 363.424 454.078 361.568 452.894 360.32C451.71 359.072 450.014 358.448 447.806 358.448C445.31 358.448 443.342 359.184 441.902 360.656C440.462 362.096 439.742 364.176 439.742 366.896V380H435.134V344.384H439.742V358.16C440.702 356.944 441.95 356 443.486 355.328C445.054 354.656 446.798 354.32 448.718 354.32ZM490.938 367.424C490.938 367.776 490.906 368.24 490.842 368.816H470.202C470.49 371.056 471.466 372.864 473.13 374.24C474.826 375.584 476.922 376.256 479.418 376.256C482.458 376.256 484.906 375.232 486.762 373.184L489.306 376.16C488.154 377.504 486.714 378.528 484.986 379.232C483.29 379.936 481.386 380.288 479.274 380.288C476.586 380.288 474.202 379.744 472.122 378.656C470.042 377.536 468.426 375.984 467.274 374C466.154 372.016 465.594 369.776 465.594 367.28C465.594 364.816 466.138 362.592 467.226 360.608C468.346 358.624 469.866 357.088 471.786 356C473.738 354.88 475.93 354.32 478.362 354.32C480.794 354.32 482.954 354.88 484.842 356C486.762 357.088 488.25 358.624 489.306 360.608C490.394 362.592 490.938 364.864 490.938 367.424ZM478.362 358.208C476.154 358.208 474.298 358.88 472.794 360.224C471.322 361.568 470.458 363.328 470.202 365.504H486.522C486.266 363.36 485.386 361.616 483.882 360.272C482.41 358.896 480.57 358.208 478.362 358.208ZM542.051 354.32C545.251 354.32 547.779 355.248 549.635 357.104C551.523 358.96 552.467 361.712 552.467 365.36V380H547.859V365.888C547.859 363.424 547.283 361.568 546.131 360.32C545.011 359.072 543.395 358.448 541.283 358.448C538.947 358.448 537.091 359.184 535.715 360.656C534.339 362.096 533.651 364.176 533.651 366.896V380H529.043V365.888C529.043 363.424 528.467 361.568 527.315 360.32C526.195 359.072 524.579 358.448 522.467 358.448C520.131 358.448 518.275 359.184 516.899 360.656C515.523 362.096 514.835 364.176 514.835 366.896V380H510.227V354.56H514.643V358.352C515.571 357.04 516.787 356.048 518.291 355.376C519.795 354.672 521.507 354.32 523.427 354.32C525.411 354.32 527.171 354.72 528.707 355.52C530.243 356.32 531.427 357.488 532.259 359.024C533.219 357.552 534.547 356.4 536.243 355.568C537.971 354.736 539.907 354.32 542.051 354.32ZM584.079 367.424C584.079 367.776 584.047 368.24 583.983 368.816H563.343C563.631 371.056 564.607 372.864 566.271 374.24C567.967 375.584 570.063 376.256 572.559 376.256C575.599 376.256 578.047 375.232 579.903 373.184L582.447 376.16C581.295 377.504 579.855 378.528 578.127 379.232C576.431 379.936 574.527 380.288 572.415 380.288C569.727 380.288 567.343 379.744 565.263 378.656C563.183 377.536 561.567 375.984 560.415 374C559.295 372.016 558.735 369.776 558.735 367.28C558.735 364.816 559.279 362.592 560.367 360.608C561.487 358.624 563.007 357.088 564.927 356C566.879 354.88 569.071 354.32 571.503 354.32C573.935 354.32 576.095 354.88 577.983 356C579.903 357.088 581.391 358.624 582.447 360.608C583.535 362.592 584.079 364.864 584.079 367.424ZM571.503 358.208C569.295 358.208 567.439 358.88 565.935 360.224C564.463 361.568 563.599 363.328 563.343 365.504H579.663C579.407 363.36 578.527 361.616 577.023 360.272C575.551 358.896 573.711 358.208 571.503 358.208ZM614.477 344.384V380H610.061V375.968C609.037 377.376 607.741 378.448 606.173 379.184C604.605 379.92 602.877 380.288 600.989 380.288C598.525 380.288 596.317 379.744 594.365 378.656C592.413 377.568 590.877 376.048 589.757 374.096C588.669 372.112 588.125 369.84 588.125 367.28C588.125 364.72 588.669 362.464 589.757 360.512C590.877 358.56 592.413 357.04 594.365 355.952C596.317 354.864 598.525 354.32 600.989 354.32C602.813 354.32 604.493 354.672 606.029 355.376C607.565 356.048 608.845 357.056 609.869 358.4V344.384H614.477ZM601.373 376.256C602.973 376.256 604.429 375.888 605.741 375.152C607.053 374.384 608.077 373.328 608.813 371.984C609.549 370.608 609.917 369.04 609.917 367.28C609.917 365.52 609.549 363.968 608.813 362.624C608.077 361.248 607.053 360.192 605.741 359.456C604.429 358.72 602.973 358.352 601.373 358.352C599.741 358.352 598.269 358.72 596.957 359.456C595.677 360.192 594.653 361.248 593.885 362.624C593.149 363.968 592.781 365.52 592.781 367.28C592.781 369.04 593.149 370.608 593.885 371.984C594.653 373.328 595.677 374.384 596.957 375.152C598.269 375.888 599.741 376.256 601.373 376.256ZM623.196 354.56H627.804V380H623.196V354.56ZM625.5 349.664C624.604 349.664 623.852 349.376 623.244 348.8C622.668 348.224 622.38 347.52 622.38 346.688C622.38 345.856 622.668 345.152 623.244 344.576C623.852 343.968 624.604 343.664 625.5 343.664C626.396 343.664 627.132 343.952 627.708 344.528C628.316 345.072 628.62 345.76 628.62 346.592C628.62 347.456 628.316 348.192 627.708 348.8C627.132 349.376 626.396 349.664 625.5 349.664ZM647.69 380.288C645.098 380.288 642.778 379.728 640.73 378.608C638.714 377.488 637.13 375.952 635.978 374C634.826 372.016 634.25 369.776 634.25 367.28C634.25 364.784 634.826 362.56 635.978 360.608C637.13 358.624 638.714 357.088 640.73 356C642.778 354.88 645.098 354.32 647.69 354.32C649.994 354.32 652.042 354.784 653.834 355.712C655.658 356.64 657.066 357.984 658.058 359.744L654.554 362C653.754 360.784 652.762 359.872 651.578 359.264C650.394 358.656 649.082 358.352 647.642 358.352C645.978 358.352 644.474 358.72 643.13 359.456C641.818 360.192 640.778 361.248 640.01 362.624C639.274 363.968 638.906 365.52 638.906 367.28C638.906 369.072 639.274 370.656 640.01 372.032C640.778 373.376 641.818 374.416 643.13 375.152C644.474 375.888 645.978 376.256 647.642 376.256C649.082 376.256 650.394 375.952 651.578 375.344C652.762 374.736 653.754 373.824 654.554 372.608L658.058 374.816C657.066 376.576 655.658 377.936 653.834 378.896C652.042 379.824 649.994 380.288 647.69 380.288ZM673.288 354.32C676.808 354.32 679.496 355.184 681.352 356.912C683.24 358.64 684.184 361.216 684.184 364.64V380H679.816V376.64C679.048 377.824 677.944 378.736 676.504 379.376C675.096 379.984 673.416 380.288 671.464 380.288C668.616 380.288 666.328 379.6 664.6 378.224C662.904 376.848 662.056 375.04 662.056 372.8C662.056 370.56 662.872 368.768 664.504 367.424C666.136 366.048 668.728 365.36 672.28 365.36H679.576V364.448C679.576 362.464 679 360.944 677.848 359.888C676.696 358.832 675 358.304 672.76 358.304C671.256 358.304 669.784 358.56 668.344 359.072C666.904 359.552 665.688 360.208 664.696 361.04L662.776 357.584C664.088 356.528 665.656 355.728 667.48 355.184C669.304 354.608 671.24 354.32 673.288 354.32ZM672.232 376.736C673.992 376.736 675.512 376.352 676.792 375.584C678.072 374.784 679 373.664 679.576 372.224V368.672H672.472C668.568 368.672 666.616 369.984 666.616 372.608C666.616 373.888 667.112 374.896 668.104 375.632C669.096 376.368 670.472 376.736 672.232 376.736ZM692.712 344.384H697.32V380H692.712V344.384ZM321.773 439.288C319.693 439.288 317.693 439.016 315.773 438.472C313.853 437.896 312.349 437.176 311.261 436.312L313.181 432.664C314.301 433.464 315.661 434.104 317.261 434.584C318.861 435.064 320.477 435.304 322.109 435.304C326.141 435.304 328.157 434.152 328.157 431.848C328.157 431.08 327.885 430.472 327.341 430.024C326.797 429.576 326.109 429.256 325.277 429.064C324.477 428.84 323.325 428.6 321.821 428.344C319.773 428.024 318.093 427.656 316.781 427.24C315.501 426.824 314.397 426.12 313.469 425.128C312.541 424.136 312.077 422.744 312.077 420.952C312.077 418.648 313.037 416.808 314.957 415.432C316.877 414.024 319.453 413.32 322.685 413.32C324.381 413.32 326.077 413.528 327.773 413.944C329.469 414.36 330.861 414.92 331.949 415.624L329.981 419.272C327.901 417.928 325.453 417.256 322.637 417.256C320.685 417.256 319.197 417.576 318.173 418.216C317.149 418.856 316.637 419.704 316.637 420.76C316.637 421.592 316.925 422.248 317.501 422.728C318.077 423.208 318.781 423.56 319.613 423.784C320.477 424.008 321.677 424.264 323.213 424.552C325.261 424.904 326.909 425.288 328.157 425.704C329.437 426.088 330.525 426.76 331.421 427.72C332.317 428.68 332.765 430.024 332.765 431.752C332.765 434.056 331.773 435.896 329.789 437.272C327.837 438.616 325.165 439.288 321.773 439.288ZM361.516 426.424C361.516 426.776 361.484 427.24 361.42 427.816H340.78C341.068 430.056 342.044 431.864 343.708 433.24C345.404 434.584 347.5 435.256 349.996 435.256C353.036 435.256 355.484 434.232 357.34 432.184L359.884 435.16C358.732 436.504 357.292 437.528 355.564 438.232C353.868 438.936 351.964 439.288 349.852 439.288C347.164 439.288 344.78 438.744 342.7 437.656C340.62 436.536 339.004 434.984 337.852 433C336.732 431.016 336.172 428.776 336.172 426.28C336.172 423.816 336.716 421.592 337.804 419.608C338.924 417.624 340.444 416.088 342.364 415C344.316 413.88 346.508 413.32 348.94 413.32C351.372 413.32 353.532 413.88 355.42 415C357.34 416.088 358.828 417.624 359.884 419.608C360.972 421.592 361.516 423.864 361.516 426.424ZM348.94 417.208C346.732 417.208 344.876 417.88 343.372 419.224C341.9 420.568 341.036 422.328 340.78 424.504H357.1C356.844 422.36 355.964 420.616 354.46 419.272C352.988 417.896 351.148 417.208 348.94 417.208ZM379.003 439.288C376.411 439.288 374.091 438.728 372.043 437.608C370.027 436.488 368.443 434.952 367.291 433C366.139 431.016 365.563 428.776 365.563 426.28C365.563 423.784 366.139 421.56 367.291 419.608C368.443 417.624 370.027 416.088 372.043 415C374.091 413.88 376.411 413.32 379.003 413.32C381.307 413.32 383.355 413.784 385.147 414.712C386.971 415.64 388.379 416.984 389.371 418.744L385.867 421C385.067 419.784 384.075 418.872 382.891 418.264C381.707 417.656 380.395 417.352 378.955 417.352C377.291 417.352 375.787 417.72 374.443 418.456C373.131 419.192 372.091 420.248 371.323 421.624C370.587 422.968 370.219 424.52 370.219 426.28C370.219 428.072 370.587 429.656 371.323 431.032C372.091 432.376 373.131 433.416 374.443 434.152C375.787 434.888 377.291 435.256 378.955 435.256C380.395 435.256 381.707 434.952 382.891 434.344C384.075 433.736 385.067 432.824 385.867 431.608L389.371 433.816C388.379 435.576 386.971 436.936 385.147 437.896C383.355 438.824 381.307 439.288 379.003 439.288ZM409.969 437.512C409.297 438.088 408.465 438.536 407.473 438.856C406.481 439.144 405.457 439.288 404.401 439.288C401.841 439.288 399.857 438.6 398.449 437.224C397.041 435.848 396.337 433.88 396.337 431.32V417.352H392.017V413.56H396.337V407.992H400.945V413.56H408.241V417.352H400.945V431.128C400.945 432.504 401.281 433.56 401.953 434.296C402.657 435.032 403.649 435.4 404.929 435.4C406.337 435.4 407.537 435 408.529 434.2L409.969 437.512ZM425.592 439.288C423.064 439.288 420.792 438.728 418.776 437.608C416.76 436.488 415.176 434.952 414.024 433C412.904 431.016 412.344 428.776 412.344 426.28C412.344 423.784 412.904 421.56 414.024 419.608C415.176 417.624 416.76 416.088 418.776 415C420.792 413.88 423.064 413.32 425.592 413.32C428.12 413.32 430.376 413.88 432.36 415C434.376 416.088 435.944 417.624 437.064 419.608C438.216 421.56 438.792 423.784 438.792 426.28C438.792 428.776 438.216 431.016 437.064 433C435.944 434.952 434.376 436.488 432.36 437.608C430.376 438.728 428.12 439.288 425.592 439.288ZM425.592 435.256C427.224 435.256 428.68 434.888 429.96 434.152C431.272 433.384 432.296 432.328 433.032 430.984C433.768 429.608 434.136 428.04 434.136 426.28C434.136 424.52 433.768 422.968 433.032 421.624C432.296 420.248 431.272 419.192 429.96 418.456C428.68 417.72 427.224 417.352 425.592 417.352C423.96 417.352 422.488 417.72 421.176 418.456C419.896 419.192 418.872 420.248 418.104 421.624C417.368 422.968 417 424.52 417 426.28C417 428.04 417.368 429.608 418.104 430.984C418.872 432.328 419.896 433.384 421.176 434.152C422.488 434.888 423.96 435.256 425.592 435.256ZM449.581 417.832C450.381 416.36 451.565 415.24 453.133 414.472C454.701 413.704 456.605 413.32 458.845 413.32V417.784C458.589 417.752 458.237 417.736 457.789 417.736C455.293 417.736 453.325 418.488 451.885 419.992C450.477 421.464 449.773 423.576 449.773 426.328V439H445.165V413.56H449.581V417.832ZM465.488 439.288C464.592 439.288 463.824 438.984 463.184 438.376C462.544 437.736 462.224 436.936 462.224 435.976C462.224 435.048 462.544 434.28 463.184 433.672C463.824 433.032 464.592 432.712 465.488 432.712C466.384 432.712 467.136 433.016 467.744 433.624C468.352 434.232 468.656 435.016 468.656 435.976C468.656 436.936 468.336 437.736 467.696 438.376C467.088 438.984 466.352 439.288 465.488 439.288Z" fill="white"/>
</g>
<defs>
<filter id="filter0_d" x="0" y="0" width="781" height="592" filterUnits="userSpaceOnUse" color-interpolation-filters="sRGB">
<feFlood flood-opacity="0" result="BackgroundImageFix"/>
<feColorMatrix in="SourceAlpha" type="matrix" values="0 0 0 0 0 0 0 0 0 0 0 0 0 0 0 0 0 0 127 0"/>
<feOffset dy="15"/>
<feGaussianBlur stdDeviation="4"/>
<feColorMatrix type="matrix" values="0 0 0 0 0 0 0 0 0 0 0 0 0 0 0 0 0 0 0.25 0"/>
<feBlend mode="normal" in2="BackgroundImageFix" result="effect1_dropShadow"/>
<feBlend mode="normal" in="SourceGraphic" in2="effect1_dropShadow" result="shape"/>
</filter>
</defs>
</svg>
