<svg width="1920" height="1080" viewBox="0 0 1920 1080" fill="none" xmlns="http://www.w3.org/2000/svg">
<g style="mix-blend-mode:overlay" opacity="0.5">
<rect x="-3" width="1926" height="1080" fill="#B31975"/>
</g>
<path d="M0 71H1920C1920 71 1927 111 1920 165C1913 219 1094 238 991 165C888 92 0 220.5 0 165C0 109.5 0 71 0 71Z" fill="#EB1695"/>
<path d="M-2 0H1917.89C1917.89 0 1924.89 54.127 1917.89 127.198C1910.89 200.27 1091.94 225.98 988.943 127.198C885.949 28.4167 -2 202.3 -2 127.198C-2 52.0972 -2 0 -2 0Z" fill="#B31975"/>
<path d="M1923 1061H3.11084C3.11084 1061 -3.88867 1016.74 3.11084 956.989C10.1105 897.238 829.063 876.214 932.057 956.989C1035.05 1037.76 1923 895.578 1923 956.989C1923 1018.4 1923 1061 1923 1061Z" fill="#EB1695"/>
<path d="M1920.11 1079.89H0.111328C0.111328 1079.89 -6.88867 1039.89 0.111328 985.889C7.11133 931.889 826.111 912.889 929.111 985.889C1032.11 1058.89 1920.11 930.389 1920.11 985.889C1920.11 1041.39 1920.11 1079.89 1920.11 1079.89Z" fill="#B31975"/>
<path d="M86.0694 93.3458L71.4924 105.703C66.6675 109.744 60.1524 112.003 53.3698 111.986C46.5871 111.969 40.0881 109.677 35.2919 105.611C30.4958 101.545 27.7923 96.0356 27.7719 90.2854C27.7514 84.5352 30.4156 79.0118 35.1827 74.9216L56.9553 56.4635C56.944 56.1383 56.9362 55.8125 56.9362 55.4858C56.9341 52.737 57.3504 49.9993 58.1747 47.3408L30.4146 70.8749C24.3701 76.0359 20.9847 83.0176 21.0001 90.2905C21.0154 97.5633 24.4301 104.535 30.4964 109.677C36.5626 114.82 44.7858 117.715 53.3646 117.727C61.9435 117.74 70.1787 114.87 76.2664 109.746L90.8428 97.3885L86.0694 93.3458Z" fill="url(#paint0_linear)"/>
<path d="M135.498 117.786C131.24 117.792 127.023 117.085 123.089 115.705C119.155 114.326 115.581 112.301 112.572 109.747L71.4923 74.9205C65.4261 69.7634 62.0223 62.7759 62.0283 55.4928C62.0344 48.2096 65.4499 41.2263 71.5248 36.0764C77.5996 30.9266 85.837 28.0313 94.4283 28.0264C103.019 28.0215 111.261 30.9075 117.344 36.0504L158.424 70.8768C162.961 74.7191 166.05 79.6158 167.303 84.9478C168.555 90.2794 167.913 95.8063 165.459 100.829C163.004 105.851 158.847 110.143 153.514 113.162C148.18 116.18 141.911 117.789 135.498 117.786H135.498ZM117.344 105.703C122.171 109.736 128.683 111.988 135.46 111.967C142.237 111.946 148.73 109.655 153.522 105.592C158.314 101.529 161.017 96.025 161.042 90.2799C161.066 84.5342 158.41 79.0133 153.653 74.9215L112.573 40.0951C110.195 38.0499 107.364 36.4237 104.241 35.3103C101.119 34.1969 97.7673 33.6184 94.3801 33.608C90.9923 33.5975 87.636 34.1555 84.5044 35.2496C81.3727 36.3437 78.527 37.9525 76.1318 39.9831C73.7365 42.0137 71.8389 44.426 70.5483 47.0811C69.2577 49.7362 68.5995 52.5816 68.6119 55.4532C68.6241 58.325 69.3066 61.1662 70.6199 63.8133C71.9332 66.4604 73.8514 68.861 76.2639 70.8768L117.344 105.703Z" fill="url(#paint1_linear)"/>
<path d="M153.653 36.0505L139.076 48.4079L143.847 52.4526L158.424 40.0952C163.251 36.0621 169.762 33.8105 176.54 33.8313C183.317 33.8522 189.809 36.1438 194.602 40.2065C199.394 44.2691 202.097 49.7733 202.121 55.5187C202.146 61.2642 199.49 66.7848 194.733 70.8768L172.943 89.3491C173.054 92.4287 172.638 95.5058 171.71 98.4845L199.504 74.9216C205.584 69.7669 209 62.7758 209 55.486C209 48.1963 205.584 41.2051 199.504 36.0505C193.423 30.8958 185.177 28 176.578 28C167.979 28 159.733 30.8958 153.653 36.0505Z" fill="url(#paint2_linear)"/>
<defs>
<linearGradient id="paint0_linear" x1="19.0444" y1="91.1212" x2="215.302" y2="48.3312" gradientUnits="userSpaceOnUse">
<stop stop-color="#EB1695"/>
<stop offset="0.502" stop-color="#EB1695"/>
<stop offset="1" stop-color="#EB1695"/>
</linearGradient>
<linearGradient id="paint1_linear" x1="19.8807" y1="93.9999" x2="211.409" y2="34.8878" gradientUnits="userSpaceOnUse">
<stop stop-color="#FDFDFD"/>
<stop offset="0.502" stop-color="white"/>
<stop offset="1" stop-color="white"/>
</linearGradient>
<linearGradient id="paint2_linear" x1="20.6255" y1="96.7926" x2="217.185" y2="53.9619" gradientUnits="userSpaceOnUse">
<stop stop-color="white"/>
<stop offset="0.502" stop-color="#EB1695"/>
<stop offset="1" stop-color="#EB1695"/>
</linearGradient>
</defs>
</svg>
