<svg width="188" height="90" viewBox="0 0 188 90" fill="none" xmlns="http://www.w3.org/2000/svg">
<path d="M65.0694 65.3458L50.4924 77.7032C45.6675 81.7444 39.1524 84.0034 32.3698 83.9862C25.5871 83.9691 19.0881 81.6773 14.2919 77.6113C9.49583 73.5454 6.79232 68.0356 6.77189 62.2854C6.75139 56.5352 9.41564 51.0118 14.1827 46.9216L35.9553 28.4635C35.944 28.1383 35.9362 27.8125 35.9362 27.4858C35.9341 24.737 36.3504 21.9993 37.1747 19.3408L9.41463 42.8749C3.37012 48.0359 -0.015268 55.0176 5.1769e-05 62.2905C0.0153716 69.5633 3.43015 76.5346 9.49636 81.6773C15.5626 86.8199 23.7858 89.7147 32.3646 89.7273C40.9435 89.7405 49.1787 86.8704 55.2664 81.7459L69.8428 69.3885L65.0694 65.3458Z" fill="url(#paint0_linear)"/>
<path d="M114.498 89.7859C110.24 89.792 106.023 89.085 102.089 87.7052C98.155 86.326 94.5808 84.3009 91.5724 81.747L50.4923 46.9205C44.4261 41.7634 41.0223 34.7759 41.0283 27.4928C41.0344 20.2096 44.4499 13.2263 50.5248 8.07643C56.5996 2.92658 64.837 0.0312814 73.4283 0.0264039C82.019 0.0215264 90.2613 2.90747 96.3441 8.05042L137.424 42.8768C141.961 46.7191 145.05 51.6158 146.303 56.9478C147.555 62.2794 146.913 67.8063 144.459 72.8288C142.004 77.8512 137.847 82.1429 132.514 85.1619C127.18 88.1805 120.911 89.7895 114.498 89.7859H114.498ZM96.3441 77.7033C101.171 81.7364 107.683 83.9878 114.46 83.9671C121.237 83.9464 127.73 81.6546 132.522 77.5916C137.314 73.5292 140.017 68.025 140.042 62.2799C140.066 56.5342 137.41 51.0133 132.653 46.9215L91.573 12.0951C89.195 10.0499 86.3636 8.42368 83.2408 7.31031C80.1187 6.19693 76.7673 5.61838 73.3801 5.60798C69.9923 5.59752 66.636 6.15547 63.5044 7.2496C60.3727 8.34373 57.527 9.95249 55.1318 11.9831C52.7365 14.0137 50.8389 16.426 49.5483 19.0811C48.2577 21.7362 47.5995 24.5816 47.6119 27.4532C47.6241 30.325 48.3066 33.1662 49.6199 35.8133C50.9332 38.4604 52.8514 40.861 55.2639 42.8768L96.3441 77.7033Z" fill="url(#paint1_linear)"/>
<path d="M132.653 8.05046L118.076 20.4079L122.847 24.4526L137.424 12.0952C142.251 8.06212 148.762 5.81053 155.54 5.83134C162.317 5.85219 168.809 8.14378 173.602 12.2065C178.394 16.2691 181.097 21.7733 181.121 27.5187C181.146 33.2642 178.49 38.7848 173.733 42.8768L151.943 61.3491C152.054 64.4287 151.638 67.5058 150.71 70.4845L178.504 46.9216C184.584 41.7669 188 34.7758 188 27.486C188 20.1963 184.584 13.2051 178.504 8.05046C172.423 2.89585 164.177 0 155.578 0C146.979 0 138.733 2.89585 132.653 8.05046Z" fill="url(#paint2_linear)"/>
<defs>
<linearGradient id="paint0_linear" x1="-1.9556" y1="63.1212" x2="194.302" y2="20.3312" gradientUnits="userSpaceOnUse">
<stop stop-color="#EB1695"/>
<stop offset="0.502" stop-color="#EB1695"/>
<stop offset="1" stop-color="#EB1695"/>
</linearGradient>
<linearGradient id="paint1_linear" x1="-1.1193" y1="65.9999" x2="190.409" y2="6.88783" gradientUnits="userSpaceOnUse">
<stop stop-color="#FDFDFD"/>
<stop offset="0.502" stop-color="white"/>
<stop offset="1" stop-color="white"/>
</linearGradient>
<linearGradient id="paint2_linear" x1="-0.374504" y1="68.7926" x2="196.185" y2="25.9619" gradientUnits="userSpaceOnUse">
<stop stop-color="white"/>
<stop offset="0.502" stop-color="#EB1695"/>
<stop offset="1" stop-color="#EB1695"/>
</linearGradient>
</defs>
</svg>
