<svg width="121" height="50" viewBox="0 0 121 50" fill="none" xmlns="http://www.w3.org/2000/svg">
<g clip-path="url(#clip0)">
<path d="M118.24 50.0002C119.764 50.0002 121 48.7646 121 47.2406V2.75957C121 1.23535 119.764 0 118.24 0H73.7596C72.2352 0 71 1.23535 71 2.75957V47.2406C71 48.7646 72.2352 50.0002 73.7596 50.0002H118.24Z" fill="#395185"/>
<path d="M105.499 50.0002V30.6375H111.998L112.971 23.0916H105.499V18.2736C105.499 16.0889 106.106 14.6 109.239 14.6L113.235 14.5982V7.84922C112.543 7.75723 110.171 7.55176 107.412 7.55176C101.651 7.55176 97.7064 11.0684 97.7064 17.5266V23.0916H91.1904V30.6375H97.7064V50.0002H105.499Z" fill="white"/>
</g>
<g clip-path="url(#clip1)">
<path d="M50 6.08852C48.1602 7.0878 46.1832 7.76316 44.1082 8.06699C46.2264 6.51197 47.8527 4.04953 48.6186 1.11555C46.605 2.57916 44.402 3.61036 42.1047 4.1646C40.2334 1.72273 37.5676 0.196655 34.617 0.196655C28.9518 0.196655 24.3586 5.82249 24.3586 12.7612C24.3586 13.7462 24.4494 14.705 24.6242 15.6249C16.0988 15.1007 8.54023 10.0986 3.48066 2.49666C2.59785 4.3524 2.09199 6.51101 2.09199 8.8134C2.09199 13.1727 3.90313 17.0184 6.65547 19.2718C5.02646 19.2093 3.4333 18.6704 2.00898 17.7C2.0084 17.7526 2.0084 17.8053 2.0084 17.8581C2.0084 23.9459 5.54434 29.0244 10.2369 30.1787C8.72634 30.6819 7.14185 30.7556 5.60449 30.394C6.90977 35.3859 10.6982 39.0184 15.1869 39.1201C11.6762 42.49 7.25293 44.4988 2.44707 44.4988C1.61895 44.4988 0.802539 44.4392 0 44.3232C4.53965 47.8883 9.93164 49.9684 15.7246 49.9684C34.5932 49.9684 44.9109 30.8223 44.9109 14.2184C44.9109 13.6734 44.9012 13.1316 44.8813 12.5928C46.8895 10.8146 48.6229 8.612 50 6.08852Z" fill="#55ACEE"/>
</g>
<defs>
<clipPath id="clip0">
<rect x="71" width="50" height="50" fill="white"/>
</clipPath>
<clipPath id="clip1">
<rect width="50" height="50" fill="white"/>
</clipPath>
</defs>
</svg>
